<svg xmlns="http://www.w3.org/2000/svg" x="0px" y="0px" width="50" height="50" viewBox="0 0 48 48">
<path d="M 24 4 C 18.556727 4 13.611893 6.1873196 10 9.7285156 L 10 8 A 2.0002 2.0002 0 0 0 7.9707031 5.9726562 A 2.0002 2.0002 0 0 0 6 8 L 6 15 A 2.0002 2.0002 0 0 0 7.9199219 16.996094 A 2.0002 2.0002 0 0 0 8.8222656 17 L 15 17 A 2.0002 2.0002 0 1 0 15 13 L 12.388672 13 C 15.301199 9.9245705 19.415571 8 24 8 C 32.860089 8 40 15.139911 40 24 C 40 32.860089 32.860089 40 24 40 C 15.139911 40 8 32.860089 8 24 A 2.0002 2.0002 0 1 0 4 24 C 4 35.021911 12.978089 44 24 44 C 35.021911 44 44 35.021911 44 24 C 44 12.978089 35.021911 4 24 4 z M 18.5 17.5 C 16.772898 17.5 15.504772 18.491433 14.871094 19.376953 C 14.237416 20.262473 14.039063 21.162109 14.039062 21.162109 A 1.50015 1.50015 0 1 0 16.960938 21.837891 C 16.960938 21.837891 17.051678 21.487527 17.3125 21.123047 C 17.573322 20.758567 17.805102 20.5 18.5 20.5 C 19.191124 20.5 19.428387 20.695762 19.650391 20.972656 C 19.872395 21.24955 20 21.705934 20 22 C 20 22.796848 19.877322 22.866169 19.638672 23.052734 C 19.400021 23.239299 18.831721 23.446582 18.068359 23.675781 C 17.304998 23.904981 16.33629 24.16515 15.457031 24.923828 C 14.577773 25.682506 14 26.972436 14 28.5 A 1.50015 1.50015 0 0 0 15.5 30 L 21.5 30 A 1.50015 1.50015 0 1 0 21.5 27 L 17.875 27 C 18.161884 26.851138 18.41744 26.703217 18.931641 26.548828 C 19.668279 26.327652 20.599979 26.108919 21.486328 25.416016 C 22.372678 24.723112 23 23.461152 23 22 C 23 21.051066 22.72173 20.008059 21.990234 19.095703 C 21.258738 18.183347 19.994876 17.5 18.5 17.5 z M 26.476562 17.978516 A 1.50015 1.50015 0 0 0 25 19.5 L 25 24.5 A 1.50015 1.50015 0 0 0 26.5 26 L 30 26 L 30 28.5 A 1.50015 1.50015 0 1 0 33 28.5 L 33 24.476562 L 33 19.5 A 1.50015 1.50015 0 1 0 30 19.5 L 30 23 L 28 23 L 28 19.5 A 1.50015 1.50015 0 0 0 26.476562 17.978516 z"></path>
</svg>