<svg xmlns="http://www.w3.org/2000/svg" x="0px" y="0px" width="50" height="50" viewBox="0 0 48 48">
<path d="M 23.986328 6 C 12.666705 6 2.6928719 13.845918 0.046875 24.126953 A 1.5002454 1.5002454 0 0 0 2.953125 24.873047 C 5.2331281 16.014082 14.065951 9 23.986328 9 C 33.906705 9 42.767507 16.01655 45.046875 24.873047 A 1.5002454 1.5002454 0 0 0 47.953125 24.126953 C 45.306493 13.84345 35.305951 6 23.986328 6 z M 24 14 C 18.49 14 14 18.49 14 24 C 14 29.51 18.49 34 24 34 C 24 28.48 28.48 24 34 24 C 34 18.49 29.52 14 24 14 z M 34 26 C 29.589 26 26 29.589 26 34 C 26 38.411 29.589 42 34 42 C 35.665 42 37.210187 41.487281 38.492188 40.613281 L 43.439453 45.560547 C 43.732453 45.854547 44.116 46 44.5 46 C 44.884 46 45.267547 45.853547 45.560547 45.560547 C 46.145547 44.974547 46.145547 44.025453 45.560547 43.439453 L 40.615234 38.492188 C 41.488234 37.210187 42 35.665 42 34 C 42 29.589 38.411 26 34 26 z M 34 29 C 36.757 29 39 31.243 39 34 C 39 36.757 36.757 39 34 39 C 31.243 39 29 36.757 29 34 C 29 31.243 31.243 29 34 29 z"></path>
</svg>