<svg xmlns="http://www.w3.org/2000/svg" x="0px" y="0px" width="50" height="50" viewBox="0 0 48 48">
<path d="M 24 4 C 12.97 4 4 12.97 4 24 C 4 35.03 12.97 44 24 44 C 35.03 44 44 35.03 44 24 C 44 12.97 35.03 4 24 4 z M 18 13 C 20.206 13 22 14.794 22 17 L 22 19 C 22 21.206 20.206 23 18 23 C 15.794 23 14 21.206 14 19 L 14 17 C 14 14.794 15.794 13 18 13 z M 31.611328 13.005859 C 31.89941 13.027246 32.185937 13.130266 32.429688 13.322266 C 33.079687 13.836266 33.190734 14.779687 32.677734 15.429688 L 17.677734 34.429688 C 17.380734 34.804688 16.941047 35 16.498047 35 C 16.173047 35 15.846313 34.894734 15.570312 34.677734 C 14.920312 34.163734 14.809266 33.220312 15.322266 32.570312 L 30.322266 13.570312 C 30.643516 13.164062 31.131191 12.970215 31.611328 13.005859 z M 18 16 C 17.448 16 17 16.448 17 17 L 17 19 C 17 19.552 17.448 20 18 20 C 18.552 20 19 19.552 19 19 L 19 17 C 19 16.448 18.552 16 18 16 z M 30 25 C 32.206 25 34 26.794 34 29 L 34 31 C 34 33.206 32.206 35 30 35 C 27.794 35 26 33.206 26 31 L 26 29 C 26 26.794 27.794 25 30 25 z M 30 28 C 29.448 28 29 28.448 29 29 L 29 31 C 29 31.552 29.448 32 30 32 C 30.552 32 31 31.552 31 31 L 31 29 C 31 28.448 30.552 28 30 28 z"></path>
</svg>